<svg width="256" height="256" viewBox="0 0 256 256" fill="none" xmlns="http://www.w3.org/2000/svg">
  <defs>
    <linearGradient id="bg" x1="36" y1="28" x2="214" y2="224" gradientUnits="userSpaceOnUse">
      <stop stop-color="#FFB15A"/>
      <stop offset="0.52" stop-color="#FF7E33"/>
      <stop offset="1" stop-color="#C94A16"/>
    </linearGradient>
    <linearGradient id="bus" x1="78" y1="76" x2="178" y2="188" gradientUnits="userSpaceOnUse">
      <stop stop-color="#2C170F"/>
      <stop offset="1" stop-color="#5E3118"/>
    </linearGradient>
  </defs>

  <rect x="20" y="20" width="216" height="216" rx="64" fill="url(#bg)"/>
  <path d="M58 152C86 108 118 90 154 90C173 90 192 95 206 104" stroke="#FFF2E8" stroke-width="20" stroke-linecap="round"/>
  <path d="M52 180C92 126 130 102 172 102C188 102 203 106 216 114" stroke="#FFD3B0" stroke-width="10" stroke-linecap="round" stroke-dasharray="1 18"/>

  <circle cx="64" cy="176" r="18" fill="#FFF8F2"/>
  <circle cx="64" cy="176" r="8" fill="#2C170F"/>
  <circle cx="190" cy="98" r="16" fill="#FFF8F2"/>
  <circle cx="190" cy="98" r="7" fill="#2C170F"/>

  <g filter="url(#shadow)">
    <rect x="74" y="84" width="108" height="92" rx="28" fill="url(#bus)"/>
    <rect x="88" y="98" width="80" height="30" rx="14" fill="#FFF4EA"/>
    <rect x="88" y="136" width="34" height="16" rx="8" fill="#D36A2E"/>
    <rect x="128" y="136" width="40" height="16" rx="8" fill="#D36A2E"/>
    <circle cx="102" cy="180" r="13" fill="#FFF4EA"/>
    <circle cx="154" cy="180" r="13" fill="#FFF4EA"/>
    <circle cx="102" cy="180" r="6" fill="#2C170F"/>
    <circle cx="154" cy="180" r="6" fill="#2C170F"/>
  </g>

  <defs>
    <filter id="shadow" x="58" y="72" width="140" height="128" filterUnits="userSpaceOnUse" color-interpolation-filters="sRGB">
      <feFlood flood-opacity="0" result="BackgroundImageFix"/>
      <feColorMatrix in="SourceAlpha" type="matrix" values="0 0 0 0 0 0 0 0 0 0 0 0 0 0 0 0 0 0 127 0" result="hardAlpha"/>
      <feOffset dy="6"/>
      <feGaussianBlur stdDeviation="8"/>
      <feComposite in2="hardAlpha" operator="out"/>
      <feColorMatrix type="matrix" values="0 0 0 0 0.24 0 0 0 0 0.12 0 0 0 0 0.05 0 0 0 0.22 0"/>
      <feBlend mode="normal" in2="BackgroundImageFix" result="effect1_dropShadow_1_1"/>
      <feBlend mode="normal" in="SourceGraphic" in2="effect1_dropShadow_1_1" result="shape"/>
    </filter>
  </defs>
</svg>
